<?xml version="1.0" encoding="UTF-8" standalone="no"?>
<svg id="svg2" xmlns:rdf="http://www.w3.org/1999/02/22-rdf-syntax-ns#" xmlns="http://www.w3.org/2000/svg" viewBox="0 0 200 200" width="75" height="75" opacity="0.25" version="1.1" xmlns:cc="http://creativecommons.org/ns#" xmlns:dc="http://purl.org/dc/elements/1.1/">
	<path id="path3015" style="fill:#fff" d="m62.249 59.035c0.80349-1.195 0.73499-3.811-0.87149-4.7344-1.229-0.61449-2.617-0.374-3.2655 0.15499-1.044 0.6315-2.0495 2.651-2.0495 4.696l3.605-0.0045-0.000952 4.0255-7.4819-0.004c0.098 2.0705 1.227 3.729 3.328 4.6524-0.2705 0.87249-1.5375 2.651-3.2775 2.5305-0.3435 1.882-0.67 2.9385-2.2345 4.6485-1.5655-1.7095-1.892-2.7665-2.2355-4.6485-1.74 0.1205-3.007-1.658-3.2775-2.5305 2.101-0.92349 3.23-2.582 3.328-4.6524l-7.4824 0.004v-4.0255l3.604 0.0045c0-2.045-1.004-4.0645-2.049-4.696-0.64851-0.5285-2.036-0.76899-3.2645-0.15499-1.6075 0.92349-1.6765 3.54-0.87299 4.7344-7.591-1.4095-6.838-8.7404-4.252-11.402 2.09-2.15 4.3685-2.486 6.1254-1.808 3.993 1.4315 6.6784 6.2014 6.8089 13.326h2.088c0-6.4769-1.127-8.5419-4.0635-16.677-1.479-3.8445-0.59049-8.5974 2.0535-12.974 0.94699-1.5685 2.13-2.9845 3.4895-4.501 1.3585 1.5165 2.5415 2.9325 3.4885 4.501 2.644 4.3765 3.5325 9.1294 2.0545 12.974-2.938 8.1349-4.065 10.199-4.065 16.677h2.088c0.1305-7.1249 2.817-11.895 6.8089-13.326 1.757-0.67749 4.037-0.342 6.1259 1.808 2.5855 2.6615 3.3385 9.9924-4.2525 11.402z"/>
	<path id="path3015-9" style="fill:#fff" d="m162.25 159.04c0.80349-1.195 0.73499-3.811-0.87149-4.7344-1.229-0.6145-2.617-0.374-3.2655 0.15499-1.044 0.6315-2.0495 2.651-2.0495 4.696l3.605-0.005-0.00095 4.0255-7.4819-0.004c0.098 2.0705 1.227 3.729 3.328 4.6524-0.2705 0.87249-1.5375 2.651-3.2775 2.5305-0.3435 1.882-0.67 2.9385-2.2345 4.6484-1.5655-1.7095-1.892-2.7665-2.2355-4.6484-1.74 0.1205-3.007-1.658-3.2775-2.5305 2.101-0.9235 3.23-2.582 3.328-4.6524l-7.4824 0.004v-4.0255l3.604 0.005c0-2.045-1.004-4.0645-2.049-4.696-0.64851-0.52849-2.036-0.76899-3.2645-0.15499-1.6075 0.92349-1.6765 3.54-0.87299 4.7344-7.591-1.4095-6.838-8.7404-4.252-11.402 2.09-2.15 4.3684-2.486 6.1254-1.808 3.993 1.4315 6.6784 6.2014 6.8089 13.326h2.088c0-6.4769-1.127-8.5419-4.0635-16.677-1.479-3.8445-0.59049-8.5974 2.0535-12.974 0.94699-1.5685 2.13-2.9845 3.4895-4.501 1.3585 1.5165 2.5415 2.9325 3.4885 4.501 2.644 4.3764 3.5325 9.1294 2.0545 12.974-2.938 8.1349-4.065 10.199-4.065 16.677h2.088c0.1305-7.1249 2.817-11.895 6.8089-13.326 1.757-0.67749 4.037-0.342 6.1259 1.808 2.5855 2.6615 3.3385 9.9924-4.2525 11.402z"/>
</svg>
